<?xml version="1.0" encoding="iso-8859-1"?>
<!-- Generator: Adobe Illustrator 19.0.0, SVG Export Plug-In . SVG Version: 6.00 Build 0)  -->
<svg version="1.1" id="Capa_1" xmlns="http://www.w3.org/2000/svg" xmlns:xlink="http://www.w3.org/1999/xlink" x="0px" y="0px"
	 viewBox="0 0 44.677 44.677" style="enable-background:new 0 0 44.677 44.677;" xml:space="preserve">
<g>
	<path d="M43.677,8.613c-0.553,0-1,0.447-1,1V42.13H2V16.454h34.037c0.553,0,1-0.447,1-1c0-0.553-0.447-1-1-1H2V6.728h4.414
		c0.553,0,1-0.447,1-1c0-0.553-0.447-1-1-1H1c-0.553,0-1,0.447-1,1V43.13c0,0.553,0.447,1,1,1h42.677c0.553,0,1-0.447,1-1V9.613
		C44.677,9.061,44.229,8.613,43.677,8.613z"/>
	<path d="M9.562,11.169c0.553,0,1-0.447,1-1V1.547c0-0.553-0.447-1-1-1c-0.553,0-1,0.447-1,1v8.622
		C8.562,10.722,9.01,11.169,9.562,11.169z"/>
	<path d="M22.338,11.169c0.553,0,1-0.447,1-1V1.547c0-0.553-0.447-1-1-1c-0.553,0-1,0.447-1,1v8.622
		C21.338,10.722,21.785,11.169,22.338,11.169z"/>
	<path d="M35.114,11.169c0.553,0,1-0.447,1-1v-3.44h7.562c0.553,0,1-0.447,1-1c0-0.553-0.447-1-1-1h-7.562V1.547
		c0-0.553-0.447-1-1-1c-0.553,0-1,0.447-1,1v8.622C34.114,10.722,34.562,11.169,35.114,11.169z"/>
	<path d="M12.205,6.728h7.491c0.553,0,1-0.447,1-1c0-0.553-0.447-1-1-1h-7.491c-0.553,0-1,0.447-1,1
		C11.205,6.281,11.652,6.728,12.205,6.728z"/>
	<path d="M24.98,6.728h7.491c0.553,0,1-0.447,1-1c0-0.553-0.447-1-1-1H24.98c-0.553,0-1,0.447-1,1
		C23.98,6.281,24.428,6.728,24.98,6.728z"/>
	<path d="M22.338,36.491c0.553,0,1-0.447,1-1v-5.199h5.2c0.553,0,1-0.447,1-1c0-0.553-0.447-1-1-1h-5.2v-5.199c0-0.553-0.447-1-1-1
		c-0.553,0-1,0.447-1,1v5.199h-5.199c-0.553,0-1,0.447-1,1c0,0.553,0.447,1,1,1h5.199v5.199
		C21.338,36.044,21.785,36.491,22.338,36.491z"/>
</g>
<g>
</g>
<g>
</g>
<g>
</g>
<g>
</g>
<g>
</g>
<g>
</g>
<g>
</g>
<g>
</g>
<g>
</g>
<g>
</g>
<g>
</g>
<g>
</g>
<g>
</g>
<g>
</g>
<g>
</g>
</svg>
