<?xml version="1.0" encoding="UTF-8"?>
<svg xmlns="http://www.w3.org/2000/svg" xmlns:xlink="http://www.w3.org/1999/xlink" width="20pt" height="20pt" viewBox="0 0 20 20" version="1.1">
<g id="surface1">
<path style=" stroke:none;fill-rule:nonzero;fill:rgb(0%,0%,0%);fill-opacity:1;" d="M 4.996094 1.589844 C 4.261719 2.457031 4.546875 2.949219 4.996094 2.953125 C 5.457031 2.960938 5.742188 2.457031 4.996094 1.589844 Z M 4.996094 1.589844 "/>
<path style=" stroke:none;fill-rule:nonzero;fill:rgb(0%,0%,0%);fill-opacity:1;" d="M 9.996094 1.589844 C 9.261719 2.457031 9.546875 2.949219 9.996094 2.953125 C 10.457031 2.960938 10.742188 2.457031 9.996094 1.589844 Z M 9.996094 1.589844 "/>
<path style=" stroke:none;fill-rule:nonzero;fill:rgb(0%,0%,0%);fill-opacity:1;" d="M 14.996094 1.589844 C 14.261719 2.457031 14.546875 2.949219 14.996094 2.953125 C 15.457031 2.960938 15.742188 2.457031 14.996094 1.589844 Z M 14.996094 1.589844 "/>
<path style=" stroke:none;fill-rule:nonzero;fill:rgb(0%,0%,0%);fill-opacity:1;" d="M 4.546875 3.410156 L 5.453125 3.410156 L 5.453125 7.046875 L 4.546875 7.046875 Z M 4.546875 3.410156 "/>
<path style=" stroke:none;fill-rule:nonzero;fill:rgb(0%,0%,0%);fill-opacity:1;" d="M 14.546875 3.410156 L 15.453125 3.410156 L 15.453125 7.046875 L 14.546875 7.046875 Z M 14.546875 3.410156 "/>
<path style=" stroke:none;fill-rule:nonzero;fill:rgb(0%,0%,0%);fill-opacity:1;" d="M 9.546875 3.410156 L 10.453125 3.410156 L 10.453125 7.046875 L 9.546875 7.046875 Z M 9.546875 3.410156 "/>
<path style=" stroke:none;fill-rule:nonzero;fill:rgb(0%,0%,0%);fill-opacity:1;" d="M 0 9.324219 L 0 16.582031 C 0 17.59375 0.808594 18.410156 1.808594 18.410156 L 18.191406 18.410156 C 19.191406 18.410156 20 17.589844 20 16.582031 L 20 9.324219 C 20 8.316406 19.191406 7.5 18.191406 7.5 L 1.808594 7.5 C 0.808594 7.5 0 8.320312 0 9.324219 Z M 19.089844 16.582031 C 19.089844 17.089844 18.683594 17.5 18.191406 17.5 L 1.808594 17.5 C 1.3125 17.5 0.910156 17.09375 0.910156 16.582031 L 0.910156 12.578125 C 1.289062 12.863281 1.667969 13.089844 2.035156 13.234375 C 2.328125 13.347656 2.613281 13.410156 2.882812 13.410156 C 3.515625 13.410156 3.96875 13.144531 4.671875 12.535156 C 4.757812 12.460938 4.757812 12.460938 4.839844 12.386719 C 5.519531 11.789062 5.855469 11.589844 6.292969 11.589844 C 6.738281 11.589844 7.097656 11.789062 7.871094 12.402344 C 7.925781 12.445312 7.925781 12.445312 7.984375 12.492188 C 8.8125 13.144531 9.296875 13.410156 9.964844 13.410156 C 10.664062 13.410156 11.136719 13.144531 12.09375 12.40625 C 12.160156 12.355469 12.160156 12.355469 12.222656 12.304688 C 12.898438 11.785156 13.261719 11.589844 13.636719 11.589844 C 13.996094 11.589844 14.328125 11.789062 15.070312 12.398438 C 15.132812 12.445312 15.132812 12.445312 15.195312 12.5 C 15.988281 13.144531 16.453125 13.410156 17.0625 13.410156 C 17.417969 13.410156 17.792969 13.296875 18.199219 13.089844 C 18.488281 12.945312 18.785156 12.753906 19.089844 12.527344 Z M 19.089844 9.324219 L 19.089844 11.363281 C 18.964844 11.472656 18.832031 11.582031 18.699219 11.683594 C 18.378906 11.933594 18.074219 12.136719 17.789062 12.277344 C 17.5 12.425781 17.25 12.5 17.0625 12.5 C 16.738281 12.5 16.402344 12.304688 15.769531 11.792969 C 15.707031 11.742188 15.707031 11.742188 15.648438 11.691406 C 14.730469 10.945312 14.289062 10.683594 13.636719 10.683594 C 12.988281 10.683594 12.5 10.945312 11.671875 11.585938 C 11.605469 11.636719 11.605469 11.636719 11.539062 11.6875 C 10.746094 12.300781 10.386719 12.5 9.964844 12.5 C 9.570312 12.5 9.21875 12.308594 8.546875 11.777344 C 8.492188 11.734375 8.492188 11.734375 8.433594 11.6875 C 7.5 10.949219 7.019531 10.683594 6.292969 10.683594 C 5.558594 10.683594 5.078125 10.964844 4.238281 11.703125 C 4.15625 11.777344 4.15625 11.777344 4.074219 11.847656 C 3.527344 12.324219 3.222656 12.5 2.882812 12.5 C 2.734375 12.5 2.5625 12.460938 2.367188 12.386719 C 2.027344 12.253906 1.644531 12.011719 1.25 11.691406 C 1.132812 11.597656 1.019531 11.5 0.910156 11.398438 L 0.910156 9.324219 C 0.910156 8.820312 1.316406 8.410156 1.808594 8.410156 L 18.191406 8.410156 C 18.6875 8.410156 19.089844 8.816406 19.089844 9.324219 Z M 19.089844 9.324219 "/>
</g>
</svg>
