<?xml version="1.0" encoding="UTF-8"?>
<svg xmlns="http://www.w3.org/2000/svg" xmlns:xlink="http://www.w3.org/1999/xlink" width="20pt" height="20pt" viewBox="0 0 20 20" version="1.1">
<g id="surface1">
<path style=" stroke:none;fill-rule:nonzero;fill:rgb(0%,0%,0%);fill-opacity:1;" d="M 20 7.671875 C 20 7.667969 20 7.667969 20 7.667969 C 20 7.65625 20 7.644531 19.996094 7.632812 C 19.996094 7.628906 19.996094 7.621094 19.996094 7.617188 C 19.992188 7.601562 19.988281 7.585938 19.984375 7.570312 C 19.984375 7.566406 19.984375 7.5625 19.980469 7.558594 C 19.976562 7.546875 19.972656 7.535156 19.96875 7.523438 C 19.964844 7.519531 19.960938 7.515625 19.960938 7.511719 C 19.953125 7.5 19.949219 7.488281 19.941406 7.480469 C 19.9375 7.476562 19.9375 7.472656 19.933594 7.464844 C 19.925781 7.457031 19.917969 7.449219 19.910156 7.441406 C 19.90625 7.4375 19.902344 7.433594 19.898438 7.429688 C 19.890625 7.421875 19.882812 7.414062 19.875 7.40625 C 19.871094 7.40625 19.871094 7.402344 19.867188 7.402344 L 17.332031 5.476562 L 17.332031 1.667969 C 17.332031 1.480469 17.183594 1.332031 17 1.332031 L 11.871094 1.332031 L 10.203125 0.0664062 C 10.082031 -0.0234375 9.917969 -0.0234375 9.796875 0.0664062 L 8.128906 1.332031 L 3 1.332031 C 2.816406 1.332031 2.667969 1.480469 2.667969 1.667969 L 2.667969 5.476562 L 0.132812 7.402344 C 0.128906 7.402344 0.128906 7.40625 0.125 7.40625 C 0.117188 7.414062 0.109375 7.421875 0.101562 7.429688 C 0.0976562 7.433594 0.09375 7.4375 0.0898438 7.441406 C 0.0820312 7.449219 0.0742188 7.457031 0.0664062 7.464844 C 0.0625 7.472656 0.0625 7.476562 0.0585938 7.480469 C 0.0507812 7.488281 0.046875 7.5 0.0390625 7.511719 C 0.0390625 7.515625 0.0351562 7.519531 0.03125 7.523438 C 0.0273438 7.535156 0.0234375 7.546875 0.0195312 7.558594 C 0.015625 7.5625 0.015625 7.566406 0.015625 7.570312 C 0.0117188 7.585938 0.0078125 7.601562 0.00390625 7.617188 C 0.00390625 7.621094 0.00390625 7.621094 0.00390625 7.625 C 0 7.640625 0 7.652344 0 7.667969 C 0 7.667969 0 7.667969 0 7.671875 L 0 19.667969 C 0 19.671875 0 19.675781 0 19.679688 C 0 19.683594 0 19.691406 0.00390625 19.699219 C 0.00390625 19.707031 0.00390625 19.71875 0.0078125 19.726562 C 0.0078125 19.734375 0.0078125 19.738281 0.0117188 19.746094 C 0.0117188 19.757812 0.015625 19.765625 0.0195312 19.777344 C 0.0195312 19.78125 0.0195312 19.78125 0.0234375 19.785156 C 0.0234375 19.789062 0.0234375 19.789062 0.0273438 19.792969 C 0.03125 19.804688 0.0351562 19.8125 0.0390625 19.820312 C 0.0429688 19.828125 0.046875 19.832031 0.046875 19.839844 C 0.0546875 19.847656 0.0585938 19.855469 0.0664062 19.863281 C 0.0703125 19.867188 0.0742188 19.875 0.078125 19.878906 C 0.0820312 19.886719 0.0898438 19.894531 0.0976562 19.902344 C 0.101562 19.90625 0.105469 19.910156 0.109375 19.914062 C 0.117188 19.921875 0.125 19.925781 0.132812 19.933594 C 0.140625 19.9375 0.144531 19.941406 0.148438 19.945312 C 0.15625 19.949219 0.167969 19.953125 0.175781 19.960938 C 0.179688 19.960938 0.1875 19.964844 0.191406 19.96875 C 0.191406 19.96875 0.195312 19.96875 0.199219 19.972656 C 0.210938 19.976562 0.222656 19.980469 0.234375 19.984375 C 0.25 19.988281 0.265625 19.992188 0.277344 19.996094 C 0.28125 19.996094 0.285156 19.996094 0.285156 19.996094 C 0.300781 20 0.316406 20 0.332031 20 C 0.335938 20 0.335938 20 0.339844 20 L 19.664062 20 C 19.664062 20 19.664062 20 19.667969 20 C 19.683594 20 19.699219 20 19.714844 19.996094 C 19.714844 19.996094 19.71875 19.996094 19.722656 19.996094 C 19.75 19.992188 19.777344 19.984375 19.800781 19.972656 C 19.804688 19.96875 19.804688 19.96875 19.808594 19.96875 C 19.8125 19.964844 19.820312 19.960938 19.824219 19.957031 C 19.835938 19.953125 19.84375 19.949219 19.851562 19.945312 C 19.855469 19.941406 19.863281 19.9375 19.867188 19.933594 C 19.875 19.925781 19.882812 19.921875 19.890625 19.914062 C 19.894531 19.910156 19.898438 19.90625 19.902344 19.898438 C 19.910156 19.894531 19.917969 19.886719 19.921875 19.878906 C 19.925781 19.875 19.929688 19.867188 19.933594 19.863281 C 19.941406 19.855469 19.945312 19.847656 19.953125 19.839844 C 19.953125 19.832031 19.957031 19.828125 19.960938 19.820312 C 19.964844 19.8125 19.96875 19.804688 19.972656 19.796875 C 19.976562 19.792969 19.976562 19.789062 19.976562 19.785156 C 19.980469 19.78125 19.980469 19.777344 19.980469 19.773438 C 19.984375 19.765625 19.988281 19.757812 19.988281 19.75 C 19.992188 19.742188 19.992188 19.734375 19.992188 19.726562 C 19.996094 19.71875 19.996094 19.710938 19.996094 19.703125 C 20 19.691406 20 19.683594 20 19.675781 C 20 19.671875 20 19.667969 20 19.667969 Z M 15.132812 15.15625 L 13.472656 13.667969 L 19.332031 8.414062 L 19.332031 18.917969 Z M 17.332031 8 L 18.796875 8 L 17.332031 9.3125 Z M 18.675781 7.332031 L 17.332031 7.332031 L 17.332031 6.316406 Z M 10 0.75 L 10.765625 1.332031 L 9.234375 1.332031 Z M 3.332031 2 L 16.667969 2 L 16.667969 9.910156 L 12.75 13.417969 C 12.75 13.417969 12.75 13.417969 12.75 13.421875 L 11.332031 14.691406 L 11.332031 14.167969 C 11.332031 13.707031 10.960938 13.332031 10.5 13.332031 C 10.40625 13.332031 10.332031 13.257812 10.332031 13.167969 L 10.332031 12.3125 C 12.25 12.082031 13.453125 9.90625 14.011719 8.582031 C 14.226562 8.078125 14.332031 7.539062 14.332031 6.976562 C 14.332031 6.511719 14.273438 5.347656 13.714844 4.546875 C 13.5 4.234375 13.234375 3.949219 12.933594 3.699219 C 11.292969 2.328125 8.816406 2.328125 7.175781 3.699219 C 6.871094 3.949219 6.609375 4.234375 6.394531 4.546875 C 5.953125 5.179688 5.667969 6.132812 5.667969 6.988281 C 5.667969 7.539062 5.773438 8.078125 5.988281 8.582031 C 6.546875 9.90625 7.75 12.082031 9.667969 12.3125 L 9.667969 13.167969 C 9.667969 13.625 10.039062 14 10.5 14 C 10.59375 14 10.667969 14.074219 10.667969 14.167969 L 10.667969 15.289062 L 10 15.886719 L 7.25 13.417969 C 7.246094 13.417969 7.246094 13.417969 7.246094 13.417969 L 3.332031 9.910156 Z M 10 11.667969 C 8.207031 11.667969 7.027344 9.328125 6.601562 8.320312 C 6.425781 7.898438 6.332031 7.453125 6.332031 6.976562 C 6.332031 6.269531 6.578125 5.445312 6.941406 4.925781 C 7.121094 4.664062 7.34375 4.421875 7.601562 4.210938 C 8.300781 3.628906 9.175781 3.335938 10.054688 3.335938 C 10.929688 3.335938 11.808594 3.628906 12.507812 4.210938 C 12.761719 4.421875 12.984375 4.664062 13.167969 4.925781 C 13.480469 5.375 13.667969 6.140625 13.667969 6.988281 C 13.667969 7.453125 13.574219 7.898438 13.398438 8.320312 C 12.972656 9.328125 11.792969 11.667969 10 11.667969 Z M 2.667969 9.3125 L 1.203125 8 L 2.667969 8 Z M 0.667969 8.414062 L 6.527344 13.667969 L 0.667969 18.917969 Z M 2.667969 6.316406 L 2.667969 7.332031 L 1.324219 7.332031 Z M 3.214844 17.53125 L 7.027344 14.113281 L 9.777344 16.582031 C 9.902344 16.695312 10.09375 16.695312 10.222656 16.582031 L 12.972656 14.113281 L 18.796875 19.332031 L 1.203125 19.332031 Z M 3.214844 17.53125 "/>
<path style=" stroke:none;fill-rule:nonzero;fill:rgb(0%,0%,0%);fill-opacity:1;" d="M 10 4.332031 C 8.53125 4.332031 7.332031 5.53125 7.332031 7 C 7.332031 7.183594 7.484375 7.332031 7.667969 7.332031 C 7.851562 7.332031 8 7.183594 8 7 C 8 5.898438 8.898438 5 10 5 C 10.183594 5 10.332031 4.851562 10.332031 4.667969 C 10.332031 4.484375 10.183594 4.332031 10 4.332031 Z M 10 4.332031 "/>
</g>
</svg>
