<?xml version="1.0" encoding="UTF-8"?>
<svg xmlns="http://www.w3.org/2000/svg" xmlns:xlink="http://www.w3.org/1999/xlink" width="20pt" height="20pt" viewBox="0 0 20 20" version="1.1">
<g id="surface1">
<path style=" stroke:none;fill-rule:nonzero;fill:rgb(0%,0%,0%);fill-opacity:1;" d="M 2.128906 3.597656 C 1.808594 3.644531 1.492188 3.8125 1.246094 4.070312 C 0.992188 4.335938 0.867188 4.59375 0.816406 4.945312 C 0.765625 5.292969 0.765625 14.554688 0.816406 14.898438 C 0.894531 15.429688 1.210938 15.859375 1.695312 16.101562 L 1.976562 16.242188 L 17.871094 16.242188 L 18.128906 16.113281 C 18.464844 15.953125 18.730469 15.683594 18.894531 15.351562 L 19.019531 15.09375 L 19.019531 4.753906 L 18.878906 4.472656 C 18.636719 3.988281 18.207031 3.671875 17.679688 3.59375 C 17.363281 3.546875 2.449219 3.550781 2.128906 3.597656 Z M 17.804688 4.449219 C 18.019531 4.550781 18.175781 4.75 18.222656 4.976562 C 18.25 5.109375 18.257812 6.628906 18.25 10.035156 L 18.242188 14.90625 L 18.136719 15.082031 C 18.070312 15.195312 17.972656 15.292969 17.859375 15.359375 L 17.683594 15.464844 L 10 15.472656 C 4.355469 15.480469 2.273438 15.472656 2.164062 15.441406 C 1.960938 15.386719 1.765625 15.222656 1.671875 15.027344 C 1.59375 14.867188 1.59375 14.859375 1.59375 9.933594 C 1.59375 5.554688 1.601562 4.980469 1.652344 4.859375 C 1.726562 4.679688 1.875 4.527344 2.054688 4.441406 C 2.199219 4.375 2.488281 4.371094 9.921875 4.371094 L 17.644531 4.371094 Z M 17.804688 4.449219 "/>
<path style=" stroke:none;fill-rule:nonzero;fill:rgb(0%,0%,0%);fill-opacity:1;" d="M 6.117188 6.035156 C 5.449219 6.214844 5.019531 6.640625 4.871094 7.261719 C 4.804688 7.550781 4.800781 8.082031 4.867188 8.414062 C 4.902344 8.613281 4.902344 8.679688 4.867188 8.75 C 4.710938 9.03125 4.796875 9.550781 5.039062 9.828125 C 5.121094 9.917969 5.222656 10.085938 5.261719 10.199219 C 5.308594 10.316406 5.40625 10.480469 5.488281 10.570312 C 5.621094 10.726562 5.628906 10.75 5.628906 10.976562 C 5.628906 11.207031 5.621094 11.222656 5.511719 11.3125 C 5.445312 11.359375 5.167969 11.492188 4.894531 11.605469 C 4.226562 11.886719 3.949219 12.046875 3.699219 12.296875 C 3.386719 12.605469 3.183594 13.0625 3.183594 13.457031 C 3.183594 13.609375 3.203125 13.65625 3.3125 13.761719 L 3.4375 13.890625 L 6.730469 13.890625 C 9.921875 13.890625 10.023438 13.886719 10.136719 13.816406 C 10.285156 13.726562 10.332031 13.5625 10.292969 13.289062 C 10.222656 12.851562 10.046875 12.527344 9.714844 12.222656 C 9.511719 12.035156 9.113281 11.820312 8.394531 11.515625 C 7.871094 11.292969 7.851562 11.269531 7.851562 10.964844 C 7.851562 10.730469 7.859375 10.703125 7.953125 10.628906 C 8.089844 10.523438 8.175781 10.390625 8.246094 10.167969 C 8.277344 10.0625 8.359375 9.921875 8.425781 9.851562 C 8.683594 9.574219 8.75 9.28125 8.628906 8.957031 C 8.554688 8.75 8.550781 8.742188 8.617188 8.511719 C 8.695312 8.222656 8.710938 7.394531 8.636719 7.160156 C 8.527344 6.789062 8.207031 6.488281 7.851562 6.421875 C 7.78125 6.40625 7.65625 6.339844 7.574219 6.277344 C 7.289062 6.042969 7.125 5.984375 6.742188 5.972656 C 6.476562 5.964844 6.320312 5.980469 6.117188 6.035156 Z M 6.988281 6.8125 C 7.074219 6.851562 7.171875 6.921875 7.203125 6.972656 C 7.269531 7.078125 7.402344 7.140625 7.59375 7.15625 C 7.75 7.171875 7.871094 7.328125 7.90625 7.589844 C 7.933594 7.789062 7.882812 8.246094 7.792969 8.558594 C 7.738281 8.757812 7.738281 8.777344 7.8125 8.945312 C 7.917969 9.183594 7.910156 9.230469 7.742188 9.425781 C 7.660156 9.519531 7.59375 9.625 7.59375 9.660156 C 7.589844 9.792969 7.4375 10.050781 7.257812 10.222656 L 7.074219 10.398438 L 7.074219 10.914062 C 7.074219 11.367188 7.082031 11.441406 7.152344 11.554688 C 7.34375 11.875 7.554688 12.019531 8.320312 12.351562 C 9.050781 12.675781 9.332031 12.875 9.332031 13.074219 C 9.332031 13.097656 8.359375 13.109375 6.738281 13.109375 L 4.144531 13.109375 L 4.167969 13.027344 C 4.230469 12.824219 4.507812 12.632812 5.09375 12.390625 C 5.722656 12.121094 5.984375 11.972656 6.179688 11.753906 C 6.386719 11.535156 6.445312 11.359375 6.445312 10.992188 C 6.445312 10.484375 6.414062 10.386719 6.214844 10.191406 C 6.023438 10.011719 5.914062 9.835938 5.875 9.644531 C 5.859375 9.582031 5.792969 9.472656 5.722656 9.40625 C 5.570312 9.257812 5.554688 9.140625 5.671875 8.945312 C 5.75 8.816406 5.75 8.804688 5.6875 8.527344 C 5.515625 7.695312 5.621094 7.128906 6 6.910156 C 6.277344 6.75 6.746094 6.703125 6.988281 6.8125 Z M 6.988281 6.8125 "/>
<path style=" stroke:none;fill-rule:nonzero;fill:rgb(0%,0%,0%);fill-opacity:1;" d="M 11.238281 7.621094 C 11.035156 7.785156 11.019531 8.027344 11.199219 8.207031 L 11.324219 8.332031 L 16.414062 8.332031 L 16.539062 8.207031 C 16.628906 8.117188 16.667969 8.046875 16.667969 7.964844 C 16.667969 7.820312 16.578125 7.644531 16.484375 7.59375 C 16.4375 7.570312 15.539062 7.554688 13.863281 7.554688 C 11.503906 7.554688 11.308594 7.5625 11.238281 7.621094 Z M 11.238281 7.621094 "/>
<path style=" stroke:none;fill-rule:nonzero;fill:rgb(0%,0%,0%);fill-opacity:1;" d="M 11.316406 9.550781 C 11.109375 9.636719 11.023438 9.902344 11.128906 10.105469 C 11.25 10.335938 11.195312 10.332031 13.878906 10.332031 C 16.121094 10.332031 16.324219 10.328125 16.445312 10.265625 C 16.6875 10.144531 16.742188 9.863281 16.558594 9.660156 L 16.453125 9.535156 L 13.917969 9.53125 C 12.527344 9.527344 11.355469 9.535156 11.316406 9.550781 Z M 11.316406 9.550781 "/>
<path style=" stroke:none;fill-rule:nonzero;fill:rgb(0%,0%,0%);fill-opacity:1;" d="M 11.273438 11.558594 C 11.167969 11.609375 11.074219 11.785156 11.074219 11.925781 C 11.074219 12.011719 11.109375 12.082031 11.199219 12.171875 L 11.324219 12.296875 L 16.414062 12.296875 L 16.539062 12.171875 C 16.628906 12.082031 16.667969 12.011719 16.667969 11.929688 C 16.667969 11.769531 16.582031 11.613281 16.464844 11.5625 C 16.335938 11.503906 11.394531 11.503906 11.273438 11.558594 Z M 11.273438 11.558594 "/>
</g>
</svg>
