<?xml version="1.0" encoding="UTF-8"?>
<svg xmlns="http://www.w3.org/2000/svg" xmlns:xlink="http://www.w3.org/1999/xlink" width="20" height="20" viewBox="0 0 20 20" fill="none" version="1.1">
<g id="surface1">
<path style=" stroke:none;fill-rule:nonzero;fill:rgb(0%,0%,0%);fill-opacity:1;" d="M 14.707031 14.058594 C 14.707031 14.71875 14.167969 15.277344 13.507812 15.277344 L 3.921875 15.277344 C 3.261719 15.277344 2.726562 14.71875 2.726562 14.058594 L 2.726562 4.476562 C 2.726562 3.816406 3.261719 3.296875 3.921875 3.296875 L 9.515625 3.296875 L 9.515625 2.5 L 3.921875 2.5 C 2.820312 2.5 1.925781 3.375 1.925781 4.476562 L 1.925781 14.058594 C 1.925781 15.160156 2.820312 16.074219 3.921875 16.074219 L 13.507812 16.074219 C 14.609375 16.074219 15.503906 15.160156 15.503906 14.058594 L 15.503906 8.488281 L 14.703125 8.488281 L 14.703125 14.058594 Z M 14.707031 14.058594 "/>
<path style=" stroke:none;fill-rule:nonzero;fill:rgb(0%,0%,0%);fill-opacity:1;" d="M 15.605469 2.378906 C 15.003906 1.773438 13.949219 1.773438 13.347656 2.378906 L 7.988281 7.734375 C 7.9375 7.785156 7.902344 7.851562 7.882812 7.921875 L 7.320312 10.179688 C 7.285156 10.3125 7.324219 10.457031 7.425781 10.558594 C 7.5 10.632812 7.601562 10.675781 7.707031 10.675781 C 7.738281 10.675781 7.773438 10.671875 7.804688 10.664062 L 10.0625 10.097656 C 10.132812 10.082031 10.195312 10.042969 10.246094 9.992188 L 15.605469 4.636719 C 15.90625 4.335938 16.074219 3.933594 16.074219 3.507812 C 16.074219 3.078125 15.90625 2.679688 15.605469 2.378906 Z M 9.761719 9.351562 L 8.257812 9.726562 L 8.632812 8.222656 L 13.0625 3.789062 L 14.195312 4.917969 Z M 15.039062 4.070312 L 14.757812 4.351562 L 13.628906 3.222656 L 13.910156 2.941406 C 14.210938 2.640625 14.738281 2.640625 15.039062 2.941406 C 15.191406 3.09375 15.273438 3.292969 15.273438 3.507812 C 15.273438 3.71875 15.191406 3.921875 15.039062 4.070312 Z M 15.039062 4.070312 "/>
</g>
</svg>
