<?xml version="1.0" encoding="utf-8"?>
<svg id="master-artboard" viewBox="0 0 1400 980" version="1.1" xmlns="http://www.w3.org/2000/svg" x="0px" y="0px" style="enable-background:new 0 0 1400 980;" width="1400px" height="980px"><defs><linearGradient id="gradient-0" gradientUnits="objectBoundingBox" x1="0.5" y1="0" x2="0.5" y2="1">
                <stop offset="0" style="stop-color: #1f8fff"/>
                <stop offset="1" style="stop-color: #005cb8"/>
              </linearGradient><linearGradient id="gradient-1" gradientUnits="userSpaceOnUse" x1="236" y1="1202.60009765625" x2="236" y2="1309.5" gradientTransform="matrix(0.999910074407005, -0.01343117237851195, 0.0065884057077344, 0.4905015735551384, -8.606294834331365, 670.3579461108751)">
                <stop offset="0" style="stop-color: #ffbd66"/>
                <stop offset="1" style="stop-color: #ff9100"/>
              </linearGradient><linearGradient id="gradient-2" gradientUnits="objectBoundingBox" x1="0.5" y1="0" x2="0.5" y2="1" gradientTransform="matrix(1, 0, 0, 0.5158604979515076, 0, 0.48413950204849243)">
                <stop offset="0" style="stop-color: #ff6e3d"/>
                <stop offset="1" style="stop-color: #d63600"/>
              </linearGradient><linearGradient id="gradient-3" gradientUnits="userSpaceOnUse" x1="652" y1="46" x2="652" y2="146" gradientTransform="matrix(1, 0, 0, 0.44305145263671875, 0, 81.31448791503907)">
                <stop offset="0" style="stop-color: #ff6e3d"/>
                <stop offset="1" style="stop-color: #d63600"/>
              </linearGradient><linearGradient id="gradient-4" gradientUnits="userSpaceOnUse" x1="652" y1="46" x2="652" y2="146" gradientTransform="matrix(0.999915771484375, 0.012975921630859375, -0.0047833251953125, 0.36860137939453125, 0.753282470703125, 83.72389770507813)">
                <stop offset="0" style="stop-color: #ff2950"/>
                <stop offset="1" style="stop-color: #c20024"/>
              </linearGradient><linearGradient id="gradient-5" gradientUnits="userSpaceOnUse" x1="654" y1="778" x2="654" y2="884" gradientTransform="matrix(0.9999516325176887, -0.009834721403301886, 0.0035884065448113208, 0.3648503141583137, -3.1405190521816038, 567.9042300818102)">
                <stop offset="0" style="stop-color: #ff2950"/>
                <stop offset="1" style="stop-color: #c20024"/>
              </linearGradient></defs><rect id="ee-background" x="0" y="0" width="1400" height="980" style="fill: white; fill-opacity: 1; pointer-events: none;"/>


<g transform="matrix(0.909890651702881, 0, 0, 0.909890651702881, 489.64830488291886, -644.1228274371788)"><g id="Layer_2_39_" transform="matrix(1, 0, 0, 1, 0, 0)">
	<g id="Layer_1-2_37_">
		<g>
			<path class="st0" d="M236,1309.5l-46-26.7v-53.5l46-26.7l46,26.7v53.5L236,1309.5z M196,1279.3l40,23.3l40-23.3v-46.5l-40-23.3&#10;&#9;&#9;&#9;&#9;l-40,23.3V1279.3z" style="fill: rgb(51, 51, 51);"/>
		</g>
	</g>
</g></g><g transform="matrix(0.9196968078613282, 0, 0, 0.9196968078613282, 102.90090650645402, -265.52279081608503)"><g id="Layer_2_43_" transform="matrix(1, 0, 0, 1, 0, 0)">
	<g id="Layer_1-2_41_">
		<g>
			<path class="st0" d="M654,884c-29.2,0-53-23.8-53-53s23.8-53,53-53s53,23.8,53,53S683.2,884,654,884z M654,784&#10;&#9;&#9;&#9;&#9;c-25.9,0-47,21.1-47,47s21.1,47,47,47s47-21.1,47-47S679.9,784,654,784z" style="fill: rgb(51, 51, 51);"/>
		</g>
	</g>
</g></g><g transform="matrix(8.267619132995605, 0, 0, 8.267619132995605, -4702.640391406143, -6371.646142866866)"><g id="g-1" transform="matrix(1, 0, 0, 1, 0, 0)">
	<g id="g-2">
		<g>
			<path class="st0" d="M654,884c-29.2,0-53-23.8-53-53s23.8-53,53-53s53,23.8,53,53S683.2,884,654,884z M654,784&#10;&#9;&#9;&#9;&#9;c-25.9,0-47,21.1-47,47s21.1,47,47,47s47-21.1,47-47S679.9,784,654,784z" style="fill: url('#gradient-5'); stroke: rgb(0, 0, 0); stroke-width: 0; stroke-opacity: 1;"/>
		</g>
	</g>
</g></g><g transform="matrix(6.574449062347411, 0, 0, 6.574449062347411, -3582.158213671768, -132.40188017155378)"><g id="g-3" transform="matrix(1, 0, 0, 1, 0, 0)">
	<g id="g-4">
		<path class="st0" d="M652,46c27.6,0,50,22.4,50,50s-22.4,50-50,50s-50-22.4-50-50S624.4,46,652,46z" style="fill: url('#gradient-4'); stroke: rgb(51, 51, 51); stroke-opacity: 0;"/>
	</g>
</g></g><g transform="matrix(8.045990943908691, 0, 0, 8.045990943908691, 535.7132462891684, 226.7432614300086)"><title>Light-bulb</title><desc>Created with Sketch.</desc><g id="Page-1">
	<g id="Light-bulb" transform="translate(1.000000, 1.000000)">
		
			<path id="Shape" fill="none" stroke="#6B6C6E" stroke-width="2" stroke-linecap="round" stroke-linejoin="round" d="&#10;&#9;&#9;&#9;M8.6,48l20.6-3c0-6.5,8.8-14.6,8.8-25.6C38,8.7,29.5,0,19,0S0,8.7,0,19.4c0,10.9,8.6,19,8.6,25.5V48L8.6,48z" style="stroke: rgb(13, 31, 11); fill-opacity: 1;" transform="matrix(1.0116510391235352, 0, 0, 1.0116510391235352, 0.7417794218582401, 1.4447222540354545)"/>
		
			<path id="Shape_1_" fill="none" stroke="#6B6C6E" stroke-width="2" stroke-linecap="round" stroke-linejoin="round" d="&#10;&#9;&#9;&#9;M10,52.3l18.8-2.9" style="stroke: rgb(13, 31, 11); fill-opacity: 1;" transform="matrix(1.0116510391235352, 0, 0, 1.0116510391235352, 0.7417794218582401, 1.4447222540354545)"/>
		
			<path id="Shape_2_" fill="none" stroke="#6B6C6E" stroke-width="2" stroke-linecap="round" stroke-linejoin="round" d="&#10;&#9;&#9;&#9;M10,56.2l18.8-2.9" style="stroke: rgb(13, 31, 11); fill-opacity: 1;" transform="matrix(1.0116510391235352, 0, 0, 1.0116510391235352, 0.7417794218582401, 1.4447222540354545)"/>
		
			<path id="Shape_3_" fill="none" stroke="#6B6C6E" stroke-width="2" stroke-linecap="round" stroke-linejoin="round" d="&#10;&#9;&#9;&#9;M26.3,59.1c0,1.6-3.1,2.9-7,2.9s-7-1.3-7-2.9" style="stroke: rgb(13, 31, 11); fill-opacity: 1;" transform="matrix(1.0116510391235352, 0, 0, 1.0116510391235352, 0.7417794218582401, 1.4447222540354545)"/>
		
			<path id="Shape_4_" fill="none" stroke="#6B6C6E" stroke-width="2" stroke-linecap="round" stroke-linejoin="round" d="&#10;&#9;&#9;&#9;M16.4,40.8c0-12.4-3.5-16.8-3.5-16.8s1.4,3.1,3,3.1c1.7,0,3-1.4,3-3.1c0,1.7,1.4,3.1,3,3.1c1.7,0,3-3.1,3-3.1s-2.8,6.7-2.8,16.8" style="stroke: rgb(13, 31, 11); fill-opacity: 1;" transform="matrix(1.0116510391235352, 0, 0, 1.0116510391235352, 0.7417794218582401, 1.4447222540354545)"/>
	</g>
</g></g></svg>