<?xml version="1.0" encoding="UTF-8"?>
<svg xmlns="http://www.w3.org/2000/svg" xmlns:xlink="http://www.w3.org/1999/xlink" width="60pt" height="60pt" viewBox="0 0 60 60" version="1.1">
<g id="surface1">
<path style=" stroke:none;fill-rule:nonzero;fill:rgb(0%,0%,0%);fill-opacity:1;" d="M 27.199219 0.117188 C 21.375 0.679688 15.597656 3.058594 11.074219 6.738281 C 9.738281 7.816406 7.628906 9.949219 6.574219 11.273438 C 3.890625 14.636719 1.6875 19.183594 0.773438 23.261719 C 0.199219 25.816406 0.0703125 27.070312 0.0703125 30 C 0.0703125 32.929688 0.199219 34.183594 0.773438 36.738281 C 1.699219 40.898438 3.960938 45.515625 6.738281 48.925781 C 7.816406 50.261719 9.949219 52.371094 11.273438 53.425781 C 14.636719 56.109375 19.183594 58.3125 23.261719 59.226562 C 25.816406 59.800781 27.070312 59.929688 30 59.929688 C 32.929688 59.929688 34.183594 59.800781 36.738281 59.226562 C 39.796875 58.546875 43.804688 56.835938 46.441406 55.089844 C 51 52.054688 54.503906 48.070312 56.90625 43.183594 C 58.371094 40.195312 59.203125 37.511719 59.730469 34.101562 C 60.011719 32.214844 60.011719 27.785156 59.730469 25.898438 C 59.203125 22.488281 58.371094 19.804688 56.90625 16.816406 C 55.335938 13.628906 53.589844 11.191406 51.070312 8.707031 C 48.597656 6.257812 46.335938 4.652344 43.183594 3.105469 C 40.230469 1.652344 37.488281 0.796875 34.21875 0.292969 C 32.742188 0.0703125 28.734375 -0.0234375 27.199219 0.117188 Z M 32.988281 2.589844 C 37.277344 3.011719 41.859375 4.6875 45.46875 7.160156 C 52.113281 11.707031 56.378906 18.679688 57.375 26.589844 C 57.597656 28.335938 57.597656 31.664062 57.375 33.410156 C 56.625 39.386719 53.953125 44.941406 49.757812 49.242188 C 49.277344 49.746094 48.820312 50.15625 48.761719 50.15625 C 48.691406 50.15625 48.339844 49.96875 47.964844 49.734375 C 47.015625 49.113281 45.058594 48.199219 42.363281 47.109375 C 39.433594 45.914062 38.144531 45.246094 37.253906 44.4375 C 36.269531 43.535156 35.859375 42.796875 35.859375 41.882812 L 35.859375 41.15625 L 36.539062 41.085938 C 38.835938 40.804688 41.460938 40.21875 42.714844 39.691406 C 43.617188 39.304688 44.402344 38.730469 44.578125 38.296875 C 44.71875 37.96875 44.707031 37.898438 44.414062 37.453125 C 43.605469 36.234375 43.488281 35.226562 43.359375 28.183594 C 43.300781 24.890625 43.207031 21.644531 43.136719 20.964844 C 42.84375 17.871094 42.339844 15.738281 41.472656 13.96875 C 40.992188 12.984375 40.722656 12.597656 40.042969 11.90625 C 38.753906 10.617188 37.464844 10.042969 35.425781 9.890625 C 34.804688 9.832031 34.382812 9.738281 34.101562 9.5625 C 32.800781 8.777344 31.558594 8.496094 29.777344 8.589844 C 24.609375 8.871094 20.824219 11.519531 18.949219 16.171875 C 17.765625 19.113281 17.367188 22.171875 17.109375 29.964844 C 16.957031 34.605469 16.652344 36.550781 15.9375 37.523438 C 15.808594 37.699219 15.703125 37.945312 15.703125 38.074219 C 15.703125 38.742188 17.296875 39.703125 19.335938 40.253906 C 20.332031 40.523438 22.160156 40.863281 23.707031 41.074219 L 24.269531 41.144531 L 24.1875 41.929688 C 24.058594 43.253906 23.484375 44.050781 21.972656 45.058594 C 20.953125 45.738281 20.074219 46.148438 17.074219 47.355469 C 14.90625 48.222656 12.691406 49.277344 11.859375 49.839844 L 11.238281 50.261719 L 10.300781 49.300781 C 6.082031 45.011719 3.386719 39.421875 2.625 33.410156 C 2.402344 31.664062 2.402344 28.335938 2.625 26.589844 C 4.3125 13.113281 15.550781 2.859375 29.121094 2.425781 C 30.269531 2.390625 31.488281 2.4375 32.988281 2.589844 Z M 32.988281 2.589844 "/>
</g>
</svg>
