<?xml version="1.0" encoding="utf-8"?>
<svg id="master-artboard" viewBox="0 0 506.20068359375 103.52788543701172" xmlns="http://www.w3.org/2000/svg" width="506.20068359375px" height="103.52788543701172px" version="1.1" style="shape-rendering:geometricPrecision; text-rendering:geometricPrecision; image-rendering:optimizeQuality; fill-rule:evenodd; clip-rule:evenodd"><defs><style id="ee-google-fonts">@import url(https://fonts.googleapis.com/css?family=Audiowide:400);</style><radialGradient id="gradient-0" gradientUnits="objectBoundingBox" cx="0.5" cy="0.5" r="0.5">
                <stop offset="0" style="stop-color: #ffffff"/>
                <stop offset="1" style="stop-color: #cccccc"/>
              </radialGradient></defs><rect id="ee-background" x="0" y="0" width="506.20068359375" height="103.52788543701172" style="fill: rgb(252, 252, 252); fill-opacity: 0; pointer-events: none;"/>
 
 <metadata id="CorelCorpID_0Corel-Layer"/>
<path d="M 252.6493682861328 157 L 249.599365234375 157 L 249.599365234375 148.60000610351562 C 249.599365234375 148.1999969482422 249.49603271484375 147.89666748046875 249.28936767578125 147.69000244140625 C 249.07603454589844 147.48333740234375 248.7626953125 147.3800048828125 248.349365234375 147.3800048828125 L 244.3893585205078 147.3800048828125 L 244.3893585205078 157 L 241.33935546875 157 L 241.33935546875 145.83999633789062 C 241.33935546875 145.63333129882812 241.37936401367188 145.43666076660156 241.45936584472656 145.25 C 241.53269958496094 145.07000732421875 241.6427001953125 144.91000366210938 241.78936767578125 144.77000427246094 C 241.9293670654297 144.6366729736328 242.0926971435547 144.52999877929688 242.27935791015625 144.4499969482422 C 242.46603393554688 144.3699951171875 242.66268920898438 144.3300018310547 242.86936950683594 144.3300018310547 L 248.36936950683594 144.3300018310547 C 248.78936767578125 144.3300018310547 249.24269104003906 144.40333557128906 249.7293701171875 144.5500030517578 C 250.21603393554688 144.70333862304688 250.676025390625 144.94332885742188 251.10935974121094 145.27000427246094 L 251.10935974121094 144.3300018310547 L 255.23936462402344 144.3300018310547 C 255.52603149414062 144.3300018310547 255.82936096191406 144.3633270263672 256.14935302734375 144.42999267578125 C 256.4693603515625 144.49667358398438 256.78936767578125 144.60000610351562 257.109375 144.74000549316406 C 257.4226989746094 144.8800048828125 257.7260437011719 145.06333923339844 258.01934814453125 145.2899932861328 C 258.3060302734375 145.50999450683594 258.5593566894531 145.77999877929688 258.77935791015625 146.10000610351562 C 258.9993591308594 146.413330078125 259.1726989746094 146.77667236328125 259.29937744140625 147.19000244140625 C 259.4327087402344 147.60333251953125 259.4993591308594 148.07333374023438 259.4993591308594 148.60000610351562 L 259.4993591308594 157 L 256.4593505859375 157 L 256.4593505859375 148.60000610351562 C 256.4593505859375 148.1999969482422 256.359375 147.89666748046875 256.15936279296875 147.69000244140625 C 255.95936584472656 147.48333740234375 255.65269470214844 147.3800048828125 255.23936462402344 147.3800048828125 L 252.49935913085938 147.3800048828125 C 252.599365234375 147.75332641601562 252.6493682861328 148.16000366210938 252.6493682861328 148.60000610351562 L 252.6493682861328 157 ZM 276.0841979980469 152.72000122070312 C 276.0841979980469 153.24667358398438 276.0175476074219 153.71665954589844 275.88421630859375 154.1300048828125 C 275.7508850097656 154.5500030517578 275.57421875 154.9199981689453 275.3542175292969 155.24000549316406 C 275.140869140625 155.55332946777344 274.8875427246094 155.82000732421875 274.5942077636719 156.0399932861328 C 274.3075256347656 156.26666259765625 274.00421142578125 156.4499969482422 273.6842041015625 156.58999633789062 C 273.3708801269531 156.72999572753906 273.0508728027344 156.8333282470703 272.7242126464844 156.89999389648438 C 272.4042053222656 156.96665954589844 272.0975341796875 157 271.80419921875 157 L 266.314208984375 157 C 265.8875427246094 157 265.4241943359375 156.92666625976562 264.9241943359375 156.77999877929688 C 264.4241943359375 156.6266632080078 263.9642028808594 156.3800048828125 263.5442199707031 156.0399932861328 C 263.1175537109375 155.7066650390625 262.7608642578125 155.26666259765625 262.4742126464844 154.72000122070312 C 262.1875305175781 154.17999267578125 262.0442199707031 153.51333618164062 262.0442199707031 152.72000122070312 L 262.0442199707031 148.60000610351562 C 262.0442199707031 147.82000732421875 262.1875305175781 147.1566619873047 262.4742126464844 146.61000061035156 C 262.7608642578125 146.07000732421875 263.1175537109375 145.6300048828125 263.5442199707031 145.2899932861328 C 263.9642028808594 144.9499969482422 264.4241943359375 144.70333862304688 264.9241943359375 144.5500030517578 C 265.4241943359375 144.40333557128906 265.8875427246094 144.3300018310547 266.314208984375 144.3300018310547 L 271.80419921875 144.3300018310547 C 272.59088134765625 144.3300018310547 273.2575378417969 144.47000122070312 273.80419921875 144.75 C 274.3508605957031 145.0366668701172 274.7908630371094 145.38999938964844 275.12420654296875 145.80999755859375 C 275.4575500488281 146.23666381835938 275.70086669921875 146.6999969482422 275.8542175292969 147.1999969482422 C 276.0075378417969 147.6999969482422 276.0841979980469 148.1666717529297 276.0841979980469 148.60000610351562 L 276.0841979980469 152.72000122070312 M 273.0342102050781 148.6199951171875 C 273.0342102050781 148.1999969482422 272.9308776855469 147.8866729736328 272.7242126464844 147.67999267578125 C 272.5108642578125 147.47999572753906 272.2041931152344 147.3800048828125 271.80419921875 147.3800048828125 L 266.3341979980469 147.3800048828125 C 265.92755126953125 147.3800048828125 265.6208801269531 147.48333740234375 265.4142150878906 147.69000244140625 C 265.20086669921875 147.89666748046875 265.0942077636719 148.1999969482422 265.0942077636719 148.60000610351562 L 265.0942077636719 152.72000122070312 C 265.0942077636719 153.1199951171875 265.20086669921875 153.42666625976562 265.4142150878906 153.63999938964844 C 265.6208801269531 153.84666442871094 265.92755126953125 153.9499969482422 266.3341979980469 153.9499969482422 L 271.80419921875 153.9499969482422 C 272.217529296875 153.9499969482422 272.52752685546875 153.84666442871094 272.73419189453125 153.63999938964844 C 272.9342041015625 153.42666625976562 273.0342102050781 153.1199951171875 273.0342102050781 152.72000122070312 L 273.0342102050781 148.6199951171875 ZM 293.7952880859375 144.3300018310547 C 293.4486389160156 145.40333557128906 293.0452880859375 146.4600067138672 292.5852966308594 147.5 C 292.12530517578125 148.53334045410156 291.5953063964844 149.52333068847656 290.99530029296875 150.47000122070312 C 290.4019775390625 151.41000366210938 289.73529052734375 152.27999877929688 288.99530029296875 153.0800018310547 C 288.25531005859375 153.8800048828125 287.4386291503906 154.57000732421875 286.5452880859375 155.14999389648438 C 285.6519775390625 155.73666381835938 284.6786193847656 156.19667053222656 283.62530517578125 156.52999877929688 C 282.57196044921875 156.85667419433594 281.4319763183594 157.02000427246094 280.2052917480469 157.02000427246094 C 279.9986267089844 157.02000427246094 279.8019714355469 156.98333740234375 279.61529541015625 156.91000366210938 C 279.4286193847656 156.8300018310547 279.2652893066406 156.72000122070312 279.12530517578125 156.5800018310547 C 278.9786376953125 156.44667053222656 278.8686218261719 156.2866668701172 278.7952880859375 156.10000610351562 C 278.7153015136719 155.9199981689453 278.67529296875 155.72332763671875 278.67529296875 155.50999450683594 L 278.67529296875 144.3300018310547 L 281.7253112792969 144.3300018310547 L 281.7253112792969 153.86000061035156 C 282.4653015136719 153.86000061035156 283.1786193847656 153.6999969482422 283.86529541015625 153.3800048828125 C 284.5452880859375 153.05999755859375 285.1886291503906 152.6366729736328 285.7952880859375 152.11000061035156 C 286.40863037109375 151.5833282470703 286.9753112792969 150.98333740234375 287.49530029296875 150.30999755859375 C 288.0152893066406 149.6366729736328 288.4786376953125 148.94667053222656 288.88531494140625 148.24000549316406 C 289.2919616699219 147.53334045410156 289.63531494140625 146.83999633789062 289.9153137207031 146.16000366210938 C 290.20196533203125 145.47999572753906 290.4153137207031 144.8699951171875 290.5552978515625 144.3300018310547 L 293.7952880859375 144.3300018310547 ZM 307.57562255859375 152.8000030517578 C 307.57562255859375 153.22666931152344 307.5022888183594 153.68333435058594 307.3556213378906 154.1699981689453 C 307.2022705078125 154.6566619873047 306.9589538574219 155.11000061035156 306.6256103515625 155.52999877929688 C 306.2989501953125 155.9499969482422 305.8656005859375 156.3000030517578 305.32562255859375 156.5800018310547 C 304.7922668457031 156.86000061035156 304.14227294921875 157 303.3756103515625 157 L 297.8856201171875 157 C 297.4589538574219 157 297.0022888183594 156.92666625976562 296.515625 156.77999877929688 C 296.0289611816406 156.6266632080078 295.57562255859375 156.3866729736328 295.1556091308594 156.05999755859375 C 294.7356262207031 155.72666931152344 294.3856201171875 155.2933349609375 294.1056213378906 154.75999450683594 C 293.82562255859375 154.22000122070312 293.68560791015625 153.56666564941406 293.68560791015625 152.8000030517578 C 293.68560791015625 152.3800048828125 293.7589416503906 151.92333984375 293.9056091308594 151.42999267578125 C 294.0589599609375 150.94332885742188 294.2989501953125 150.49000549316406 294.6256103515625 150.07000732421875 C 294.9589538574219 149.64999389648438 295.3955993652344 149.3000030517578 295.93560791015625 149.02000427246094 C 296.46893310546875 148.74000549316406 297.11895751953125 148.60000610351562 297.8856201171875 148.60000610351562 L 303.3756103515625 148.60000610351562 L 303.3756103515625 151.5 L 297.8856201171875 151.5 C 297.4722900390625 151.5 297.15228271484375 151.6266632080078 296.92559814453125 151.8800048828125 C 296.6989440917969 152.13999938964844 296.5856018066406 152.4566650390625 296.5856018066406 152.8300018310547 C 296.5856018066406 153.22999572753906 296.7156066894531 153.5399932861328 296.9756164550781 153.75999450683594 C 297.2356262207031 153.97999572753906 297.5456237792969 154.08999633789062 297.9056091308594 154.08999633789062 L 303.3756103515625 154.08999633789062 C 303.7889404296875 154.08999633789062 304.10894775390625 153.96665954589844 304.3356018066406 153.72000122070312 C 304.5622863769531 153.46665954589844 304.67559814453125 153.15333557128906 304.67559814453125 152.77999877929688 L 304.67559814453125 148.52999877929688 C 304.67559814453125 148.1300048828125 304.5522766113281 147.81333923339844 304.30560302734375 147.5800018310547 C 304.06561279296875 147.34666442871094 303.755615234375 147.22999572753906 303.3756103515625 147.22999572753906 L 296.68560791015625 147.22999572753906 L 296.68560791015625 144.3300018310547 L 303.3756103515625 144.3300018310547 C 303.8022766113281 144.3300018310547 304.2589416503906 144.40333557128906 304.74560546875 144.5500030517578 C 305.2322692871094 144.70333862304688 305.68560791015625 144.94667053222656 306.1056213378906 145.27999877929688 C 306.5189514160156 145.60665893554688 306.86895751953125 146.0399932861328 307.1556091308594 146.5800018310547 C 307.43560791015625 147.1133270263672 307.57562255859375 147.76333618164062 307.57562255859375 148.52999877929688 L 307.57562255859375 152.8000030517578 Z" transform="matrix(7.459883213043213, 0, 0, 7.459883213043213, -1792.348388671875, -1072.86767578125)" style="fill: rgb(51, 51, 51); white-space: pre; color: rgb(51, 51, 51);"/></svg>